HIERARCHY
ROOT Hips
{
	OFFSET 0.000000 92.661156 0.000000
	CHANNELS 6 Xposition Yposition Zposition Xrotation Yrotation Zrotation 
	JOINT Spine
	{
		OFFSET 0.000000 8.600700 -0.340700
		CHANNELS 3 Xrotation Yrotation Zrotation
		JOINT Spine1
		{
			OFFSET 0.000000 7.167277 -0.283933
			CHANNELS 3 Xrotation Yrotation Zrotation
			JOINT Spine1_split
			{
				OFFSET 0.000000 7.167277 -0.283933
				CHANNELS 3 Xrotation Yrotation Zrotation
				JOINT Spine2
				{
					OFFSET 0.000000 7.167277 -0.283933
					CHANNELS 3 Xrotation Yrotation Zrotation
					JOINT Neck
					{
						OFFSET 0.000000 12.901077 -0.511079
						CHANNELS 3 Xrotation Yrotation Zrotation
						JOINT Head
						{
							OFFSET 0.000000 17.330292 0.169800
							CHANNELS 3 Xrotation Yrotation Zrotation
							JOINT HeadTop_End
							{
								OFFSET 0.000000 25.253006 0.449800
								CHANNELS 3 Xrotation Yrotation Zrotation
								End Site
								{
									OFFSET 0.000000 0.000000 0.000000
								}
							}
						}
					}
					JOINT LeftShoulder
					{
						OFFSET 3.788200 5.290627 -0.235409
						CHANNELS 3 Xrotation Yrotation Zrotation
						JOINT LeftShoulder_split
						{
							OFFSET 3.788200 5.290627 -0.235409
							CHANNELS 3 Xrotation Yrotation Zrotation
							JOINT LeftArm
							{
								OFFSET 14.492776 -4.330338 0.080513
								CHANNELS 3 Xrotation Yrotation Zrotation
								JOINT LeftForeArm
								{
									OFFSET 24.772102 0.000000 0.000001
									CHANNELS 3 Xrotation Yrotation Zrotation
									JOINT LeftHand
									{
										OFFSET 30.634605 0.000000 0.000001
										CHANNELS 3 Xrotation Yrotation Zrotation
										JOINT LeftHandThumb1
										{
											OFFSET 3.322998 -1.480820 3.892684
											CHANNELS 3 Xrotation Yrotation Zrotation
											JOINT LeftHandThumb2
											{
												OFFSET 3.301682 -1.906227 1.906227
												CHANNELS 3 Xrotation Yrotation Zrotation
												JOINT LeftHandThumb3
												{
													OFFSET 4.058510 -2.343185 2.343183
													CHANNELS 3 Xrotation Yrotation Zrotation
													JOINT LeftHandThumb4
													{
														OFFSET 3.530258 -2.038193 2.038196
														CHANNELS 3 Xrotation Yrotation Zrotation
														End Site
														{
															OFFSET 0.000000 0.000000 0.000000
														}
													}
												}
											}
										}
										JOINT LeftHandIndex1
										{
											OFFSET 10.849342 -0.216278 3.292529
											CHANNELS 3 Xrotation Yrotation Zrotation
											JOINT LeftHandIndex2
											{
												OFFSET 4.927605 0.000000 0.000000
												CHANNELS 3 Xrotation Yrotation Zrotation
												JOINT LeftHandIndex3
												{
													OFFSET 4.929016 0.000000 0.000000
													CHANNELS 3 Xrotation Yrotation Zrotation
													JOINT LeftHandIndex4
													{
														OFFSET 3.938446 0.000000 0.000000
														CHANNELS 3 Xrotation Yrotation Zrotation
														End Site
														{
															OFFSET 0.000000 0.000000 0.000000
														}
													}
												}
											}
										}
										JOINT LeftHandMiddle1
										{
											OFFSET 10.448532 0.000000 0.000000
											CHANNELS 3 Xrotation Yrotation Zrotation
											JOINT LeftHandMiddle2
											{
												OFFSET 5.230713 0.000000 0.000000
												CHANNELS 3 Xrotation Yrotation Zrotation
												JOINT LeftHandMiddle3
												{
													OFFSET 5.101120 0.000000 0.000000
													CHANNELS 3 Xrotation Yrotation Zrotation
													JOINT LeftHandMiddle4
													{
														OFFSET 4.284767 0.000000 0.000000
														CHANNELS 3 Xrotation Yrotation Zrotation
														End Site
														{
															OFFSET 0.000000 0.000000 0.000000
														}
													}
												}
											}
										}
										JOINT LeftHandRing1
										{
											OFFSET 10.036697 -0.428497 -3.199690
											CHANNELS 3 Xrotation Yrotation Zrotation
											JOINT LeftHandRing2
											{
												OFFSET 5.001900 0.000000 0.000000
												CHANNELS 3 Xrotation Yrotation Zrotation
												JOINT LeftHandRing3
												{
													OFFSET 4.631409 0.000000 0.000000
													CHANNELS 3 Xrotation Yrotation Zrotation
													JOINT LeftHandRing4
													{
														OFFSET 3.923203 0.000000 0.000000
														CHANNELS 3 Xrotation Yrotation Zrotation
														End Site
														{
															OFFSET 0.000000 0.000000 0.000000
														}
													}
												}
											}
										}
										JOINT LeftHandPinky1
										{
											OFFSET 8.103996 -0.005463 -4.958908
											CHANNELS 3 Xrotation Yrotation Zrotation
											JOINT LeftHandPinky2
											{
												OFFSET 5.207626 0.000000 0.000000
												CHANNELS 3 Xrotation Yrotation Zrotation
												JOINT LeftHandPinky3
												{
													OFFSET 4.089874 0.000000 0.000000
													CHANNELS 3 Xrotation Yrotation Zrotation
													JOINT LeftHandPinky4
													{
														OFFSET 3.375877 0.000000 0.000000
														CHANNELS 3 Xrotation Yrotation Zrotation
														End Site
														{
															OFFSET 0.000000 0.000000 0.000000
														}
													}
												}
											}
										}
									}
								}
							}
						}
					}
					JOINT RightShoulder
					{
						OFFSET -3.788200 5.290580 -0.275689
						CHANNELS 3 Xrotation Yrotation Zrotation
						JOINT RightShoulder_split
						{
							OFFSET -3.788200 5.290580 -0.275689
							CHANNELS 3 Xrotation Yrotation Zrotation
							JOINT RightArm
							{
								OFFSET -14.492803 -4.330246 -0.080524
								CHANNELS 3 Xrotation Yrotation Zrotation
								JOINT RightForeArm
								{
									OFFSET -24.772099 0.000000 0.000001
									CHANNELS 3 Xrotation Yrotation Zrotation
									JOINT RightHand
									{
										OFFSET -30.639809 0.000000 0.000002
										CHANNELS 3 Xrotation Yrotation Zrotation
										JOINT RightHandThumb1
										{
											OFFSET -3.507294 -1.655342 3.790413
											CHANNELS 3 Xrotation Yrotation Zrotation
											JOINT RightHandThumb2
											{
												OFFSET -3.360497 -1.940186 1.940185
												CHANNELS 3 Xrotation Yrotation Zrotation
												JOINT RightHandThumb3
												{
													OFFSET -4.025208 -2.323959 2.323956
													CHANNELS 3 Xrotation Yrotation Zrotation
													JOINT RightHandThumb4
													{
														OFFSET -3.461601 -1.998558 1.998558
														CHANNELS 3 Xrotation Yrotation Zrotation
														End Site
														{
															OFFSET 0.000000 0.000000 0.000000
														}
													}
												}
											}
										}
										JOINT RightHandIndex1
										{
											OFFSET -11.045464 -0.146271 3.003679
											CHANNELS 3 Xrotation Yrotation Zrotation
											JOINT RightHandIndex2
											{
												OFFSET -5.131828 0.000000 0.000000
												CHANNELS 3 Xrotation Yrotation Zrotation
												JOINT RightHandIndex3
												{
													OFFSET -4.796227 0.000000 0.000000
													CHANNELS 3 Xrotation Yrotation Zrotation
													JOINT RightHandIndex4
													{
														OFFSET -4.077904 0.000000 0.000000
														CHANNELS 3 Xrotation Yrotation Zrotation
														End Site
														{
															OFFSET 0.000000 0.000000 0.000000
														}
													}
												}
											}
										}
										JOINT RightHandMiddle1
										{
											OFFSET -10.374084 0.000000 0.000000
											CHANNELS 3 Xrotation Yrotation Zrotation
											JOINT RightHandMiddle2
											{
												OFFSET -5.356903 0.000000 0.000000
												CHANNELS 3 Xrotation Yrotation Zrotation
												JOINT RightHandMiddle3
												{
													OFFSET -5.191803 0.000000 0.000000
													CHANNELS 3 Xrotation Yrotation Zrotation
													JOINT RightHandMiddle4
													{
														OFFSET -4.162704 0.000000 0.000000
														CHANNELS 3 Xrotation Yrotation Zrotation
														End Site
														{
															OFFSET 0.000000 0.000000 0.000000
														}
													}
												}
											}
										}
										JOINT RightHandRing1
										{
											OFFSET -9.630859 -0.277283 -3.149876
											CHANNELS 3 Xrotation Yrotation Zrotation
											JOINT RightHandRing2
											{
												OFFSET -5.180817 0.000000 0.000000
												CHANNELS 3 Xrotation Yrotation Zrotation
												JOINT RightHandRing3
												{
													OFFSET -4.740578 0.000000 0.000000
													CHANNELS 3 Xrotation Yrotation Zrotation
													JOINT RightHandRing4
													{
														OFFSET -4.011124 0.000000 0.000000
														CHANNELS 3 Xrotation Yrotation Zrotation
														End Site
														{
															OFFSET 0.000000 0.000000 0.000000
														}
													}
												}
											}
										}
										JOINT RightHandPinky1
										{
											OFFSET -8.537476 -0.025681 -5.717695
											CHANNELS 3 Xrotation Yrotation Zrotation
											JOINT RightHandPinky2
											{
												OFFSET -4.854950 0.000000 0.000000
												CHANNELS 3 Xrotation Yrotation Zrotation
												JOINT RightHandPinky3
												{
													OFFSET -3.856483 0.000000 0.000000
													CHANNELS 3 Xrotation Yrotation Zrotation
													JOINT RightHandPinky4
													{
														OFFSET -3.016380 0.000000 0.000000
														CHANNELS 3 Xrotation Yrotation Zrotation
														End Site
														{
															OFFSET 0.000000 0.000000 0.000000
														}
													}
												}
											}
										}
									}
								}
							}
						}
					}
				}
			}
		}
	}
	JOINT LeftUpLeg
	{
		OFFSET 10.333600 -4.771301 0.200300
		CHANNELS 3 Xrotation Yrotation Zrotation
		JOINT LeftLeg
		{
			OFFSET -0.039310 -39.946499 -3.314672
			CHANNELS 3 Xrotation Yrotation Zrotation
			JOINT LeftFoot
			{
				OFFSET 0.039316 -38.752296 -6.562774
				CHANNELS 3 Xrotation Yrotation Zrotation
				JOINT LeftToeBase
				{
					OFFSET 0.252044 -8.829344 16.191711
					CHANNELS 3 Xrotation Yrotation Zrotation
					JOINT LeftToe_End
					{
						OFFSET 0.124490 0.008314 8.117143
						CHANNELS 3 Xrotation Yrotation Zrotation
						End Site
						{
							OFFSET 0.000000 0.000000 0.000000
						}
					}
				}
			}
		}
	}
	JOINT RightUpLeg
	{
		OFFSET -10.333600 -4.771301 0.752800
		CHANNELS 3 Xrotation Yrotation Zrotation
		JOINT RightLeg
		{
			OFFSET 0.039295 -39.946587 -3.844795
			CHANNELS 3 Xrotation Yrotation Zrotation
			JOINT RightFoot
			{
				OFFSET -0.039304 -38.753475 -6.471369
				CHANNELS 3 Xrotation Yrotation Zrotation
				JOINT RightToeBase
				{
					OFFSET -0.251556 -8.826419 16.120266
					CHANNELS 3 Xrotation Yrotation Zrotation
					JOINT RightToe_End
					{
						OFFSET -0.124249 0.009768 8.077740
						CHANNELS 3 Xrotation Yrotation Zrotation
						End Site
						{
							OFFSET 0.000000 0.000000 0.000000
						}
					}
				}
			}
		}
	}
}
MOTION
Frames: 5
Frame Time: 0.016667
-0.920761 71.622673 -0.766624 -29.694739 -22.316958 -25.713434 14.086247 10.264473 -3.134836 1.361567 2.848195 0.144734 0.000000 0.000000 0.000000 1.380798 2.822178 0.114127 3.479109 -1.932754 0.218962 8.764232 -20.296752 11.241916 -0.000000 0.000001 0.000000 -1.714888 9.899163 0.739458 0.000000 0.000000 0.000000 25.814901 24.343610 -19.738830 0.000002 -41.661777 0.000001 13.204660 -15.596047 -11.762221 4.972951 -0.919258 4.455763 7.416822 13.559467 3.778483 -10.276928 -8.025442 12.851103 0.000001 -0.000002 0.000002 0.332632 -2.971058 -1.456188 0.830595 3.008820 -30.858269 0.830586 3.008806 -30.858269 0.000001 0.000002 -0.000000 -0.686690 0.199373 -14.655440 0.595569 2.575500 -26.036333 0.077075 0.948168 -9.294147 0.000000 0.000000 -0.000000 0.933467 5.741939 -20.414016 0.491120 2.349932 -23.606348 0.332274 1.946690 -19.370483 -0.000003 0.000001 -0.000002 2.244616 16.205433 -22.664093 0.579225 2.541852 -25.670875 0.579256 2.541877 -25.670860 0.000001 -0.000000 0.000002 0.821064 3.691082 -4.575343 0.000000 0.000000 0.000000 29.787230 -12.015545 12.825479 -0.000011 44.662289 0.000018 26.446680 4.984167 32.606562 3.998966 2.832324 -3.864440 7.802590 -15.416773 -4.481865 -8.389271 2.112096 -14.768606 -0.000002 0.000000 0.000001 0.387297 3.131503 0.644112 0.662450 -2.395976 30.906640 0.662459 -2.395987 30.906650 -0.000001 0.000000 0.000000 -0.709932 0.247555 13.910236 0.475074 -2.051030 26.079669 0.061186 -0.753326 9.288678 -0.000001 -0.000001 -0.000003 0.807584 -5.199888 19.769380 0.391797 -1.871417 23.646685 0.265335 -1.551042 19.413962 0.000000 0.000001 -0.000000 1.997335 -15.634347 22.197616 0.462050 -2.024251 25.713746 0.462056 -2.024236 25.713740 -0.000000 -0.000002 -0.000001 -33.938230 5.795411 -8.018816 36.069799 -3.153526 -1.173169 34.707043 5.784655 19.810685 -18.993212 0.000008 0.000009 0.000002 0.000001 0.000000 -6.028067 -17.173520 -15.575948 88.742332 2.394926 0.749517 1.794363 1.906764 19.500981 -60.660174 0.000035 0.000019 -0.000001 -0.000000 -0.000000 
-0.577835 72.145920 -1.247358 -29.062469 -25.283779 -25.679069 12.675430 9.979945 -2.737932 1.136365 2.743889 0.185288 0.000000 0.000000 0.000000 1.155198 2.719444 0.156601 3.692759 -1.649261 0.136888 8.684652 -17.263984 10.308960 0.000000 0.000000 0.000000 -1.769815 8.869694 1.360031 0.000000 0.000000 0.000000 29.376053 20.799488 -19.353558 -0.000014 -47.837504 -0.000016 12.601813 -14.964844 -9.922703 0.563915 3.276161 1.290744 6.001298 14.501011 5.886578 -10.804253 -7.655006 13.338681 0.000001 -0.000006 0.000005 0.770765 -3.059271 -3.441896 0.834584 3.015462 -30.934108 0.803272 2.962647 -30.333570 0.000005 0.000002 -0.000002 -0.701386 0.479481 -16.005134 0.676730 2.735221 -27.788148 0.113683 1.149741 -11.294062 0.000001 -0.000000 -0.000000 0.938345 5.648774 -22.129825 0.582217 2.548044 -25.737980 0.391783 2.108221 -21.052374 0.000002 0.000002 -0.000002 2.127471 15.620808 -25.246406 0.657063 2.697664 -27.373670 0.695912 2.771311 -28.187752 0.000001 -0.000004 0.000001 0.891971 4.475630 -4.577483 0.000000 0.000000 0.000000 31.109398 -11.271504 13.419995 0.000000 49.911102 0.000005 29.055898 2.784389 32.016402 -0.916460 -1.455781 -0.102456 7.876264 -13.947048 -6.818026 -8.929948 0.641557 -15.264402 -0.000000 0.000002 -0.000000 0.849398 3.278824 1.980685 0.661797 -2.394902 30.890958 0.672023 -2.411869 31.134475 0.000000 -0.000002 0.000000 -0.714323 0.046802 14.734236 0.509516 -2.119924 27.026399 0.086927 -0.896620 11.076244 -0.000001 0.000003 -0.000001 0.859022 -5.243527 21.115876 0.429174 -1.954525 24.766379 0.297948 -1.640637 20.585161 0.000001 0.000001 0.000000 1.811294 -15.068145 23.793517 0.460698 -2.021415 25.675202 0.526782 -2.153425 27.489539 0.000000 0.000001 0.000000 -34.690391 5.608530 -7.208649 33.394537 -2.997272 -1.170071 35.840950 5.667746 19.070385 -18.500319 0.000012 -0.000003 0.000001 -0.000003 -0.000001 -9.082065 -16.153044 -16.695798 88.760446 1.923006 0.749325 2.841980 1.929913 19.560969 -60.054787 0.000032 -0.000013 -0.000001 0.000001 0.000000 
0.042019 73.131187 -1.996584 -28.241808 -28.060137 -25.825256 11.901758 9.427179 -1.834464 0.987581 2.545629 0.310776 0.000000 0.000000 0.000000 1.006069 2.520067 0.284052 3.756727 -1.374877 0.021094 8.272596 -14.472640 9.124156 -0.000000 -0.000003 0.000000 -1.675735 7.905167 1.430784 0.000000 0.000000 0.000000 33.371765 17.074653 -18.703314 0.000003 -53.002060 0.000010 14.722744 -16.850650 -5.241937 -4.293008 7.766246 -1.610680 4.426256 15.504758 8.157395 -11.364442 -7.322570 13.855442 -0.000001 -0.000005 -0.000002 1.202557 -3.168889 -5.619031 0.839500 3.023655 -31.027569 0.773715 2.911636 -29.756914 -0.000001 0.000001 -0.000001 -0.705201 0.790223 -17.484777 0.770161 2.905427 -29.686980 0.161242 1.366353 -13.459506 -0.000001 -0.000000 -0.000001 0.929509 5.544837 -23.981761 0.689237 2.758773 -28.048867 0.461635 2.281341 -22.876819 -0.000000 0.000000 -0.000001 1.991442 14.962414 -28.029201 0.748456 2.867116 -29.256265 0.832148 3.011422 -30.887966 0.000001 0.000002 -0.000000 0.962704 5.264597 -4.593254 0.000000 0.000000 0.000000 32.399692 -10.484690 13.942397 -0.000005 55.217230 -0.000000 31.718497 0.505336 31.545048 -6.159038 -6.070390 3.223865 7.975848 -12.453128 -9.217715 -9.490563 -0.856528 -15.799423 -0.000002 -0.000002 -0.000000 1.308552 3.416321 3.488891 0.664293 -2.399073 30.950637 0.685585 -2.434170 31.455398 0.000001 -0.000005 0.000001 -0.714564 -0.179879 15.681308 0.548538 -2.194699 28.063094 0.120214 -1.052415 13.032750 -0.000002 -0.000000 -0.000000 0.915599 -5.291573 22.585238 0.471430 -2.043576 25.977682 0.335993 -1.738495 21.875136 0.000001 0.000001 -0.000000 1.595080 -14.417732 25.488111 0.460766 -2.021544 25.676879 0.599020 -2.286812 29.354172 -0.000001 -0.000001 0.000002 -34.070930 5.137487 -6.243400 27.837355 -3.577011 -1.142233 38.428956 5.794939 18.098932 -18.059071 -0.000001 -0.000002 0.000000 -0.000001 0.000000 -12.164888 -15.593085 -17.305990 87.881332 1.083642 0.751322 4.741338 2.048791 19.522060 -59.391022 0.000022 -0.000010 -0.000000 0.000000 0.000000 
0.822536 74.318649 -2.962116 -27.376202 -30.799437 -26.179002 11.491939 8.860699 -0.712665 0.907518 2.332672 0.463277 0.000000 0.000000 0.000000 0.925578 2.304379 0.438818 3.785127 -1.102589 -0.085311 7.820120 -11.689718 7.958725 -0.000000 0.000000 0.000000 -1.567401 6.770843 1.502113 0.000000 0.000000 0.000000 34.971931 15.507393 -19.168641 -0.000007 -59.620421 -0.000008 19.543955 -11.052838 -17.861892 -9.599652 12.438938 -4.143959 2.727450 16.510553 10.574082 -11.949345 -7.022983 14.394866 -0.000001 -0.000005 -0.000002 1.613881 -3.305443 -7.940346 0.844689 3.032235 -31.125736 0.742316 2.856080 -29.132901 0.000001 -0.000001 0.000002 -0.694686 1.124794 -19.058845 0.874722 3.081360 -31.688891 0.220357 1.593188 -15.748485 0.000001 -0.000001 0.000002 0.904548 5.433869 -25.930685 0.811258 2.976259 -30.487932 0.541394 2.461664 -24.803965 -0.000001 0.000001 -0.000001 1.835475 14.243920 -30.955356 0.852146 3.044607 -31.267158 0.986953 3.255916 -33.719305 -0.000000 -0.000001 0.000002 1.034908 6.044127 -4.586631 0.000000 0.000000 0.000000 33.722867 -9.723886 14.524641 0.000007 60.401542 -0.000002 34.085772 -1.787322 31.003735 -11.748581 -10.867165 6.035432 8.087155 -10.971726 -11.660428 -10.067888 -2.359500 -16.370961 0.000000 0.000003 -0.000002 1.751463 3.557479 5.085935 0.667036 -2.403656 31.016377 0.699918 -2.457434 31.791204 -0.000000 -0.000000 -0.000001 -0.706627 -0.423186 16.677336 0.589639 -2.270086 29.118592 0.160518 -1.213443 15.071012 0.000000 -0.000001 0.000000 0.972796 -5.337799 24.098492 0.516365 -2.133282 27.210787 0.377583 -1.838701 23.208151 -0.000001 0.000001 -0.000000 1.362376 -13.709813 27.214204 0.460621 -2.021283 25.673332 0.676370 -2.419076 31.238048 0.000000 -0.000002 0.000002 -34.821363 4.948637 -5.257195 27.575557 -4.247689 -1.205192 38.479039 5.702901 17.127234 -18.098063 -0.000001 -0.000003 -0.000001 0.000000 -0.000000 -15.244953 -15.426023 -17.539180 86.527780 0.020529 0.763007 7.050286 2.261950 19.190957 -58.690354 0.000006 0.000011 -0.000002 -0.000000 0.000000 
1.829868 75.736847 -4.226295 -26.540932 -33.486365 -26.646641 11.527381 8.456376 0.329878 0.955159 2.169618 0.611974 0.000000 0.000000 0.000000 0.972850 2.136379 0.590661 3.854532 -0.827573 -0.129918 7.435544 -8.720079 7.050683 -0.000000 -0.000000 0.000000 -1.413343 5.991158 1.409595 0.000000 0.000000 0.000000 37.414168 12.882329 -19.970607 -0.000029 -63.736791 -0.000038 22.362731 -10.781000 -16.433599 -15.369001 17.161766 -6.231694 0.944304 17.465009 13.112175 -12.551224 -6.751884 14.954119 0.000001 -0.000006 -0.000002 1.992149 -3.471339 -10.358511 0.849458 3.040099 -31.215675 0.709425 2.796336 -28.465904 0.000000 0.000000 -0.000004 -0.667409 1.475712 -20.691836 0.988711 3.258498 -33.750007 0.291083 1.825359 -18.119093 -0.000001 0.000000 0.000001 0.862125 5.319779 -27.937485 0.946709 3.194888 -33.004147 0.630064 2.644884 -26.793953 -0.000001 0.000001 -0.000001 1.660484 13.479989 -33.968580 0.966331 3.224877 -33.354812 1.158444 3.498836 -36.629625 -0.000001 0.000000 0.000001 1.108391 6.793903 -4.508436 0.000000 0.000000 0.000000 35.139114 -9.052911 15.377099 -0.000003 65.173597 0.000019 35.666244 -4.045047 30.046518 -17.715738 -15.686158 8.282722 8.195855 -9.535657 -14.123179 -10.659267 -3.844282 -16.978430 0.000004 -0.000004 -0.000002 2.166921 3.711641 6.688648 0.667151 -2.403826 31.018703 0.711636 -2.476223 32.063695 0.000002 0.000002 -0.000001 -0.687999 -0.673284 17.648203 0.630033 -2.341006 30.121810 0.206390 -1.372443 17.103907 -0.000000 0.000001 0.000000 1.025870 -5.376634 25.576675 0.561354 -2.218546 28.395811 0.420406 -1.935459 24.508491 -0.000000 -0.000001 0.000001 1.129309 -12.969892 28.904852 0.458726 -2.017307 25.619157 0.755789 -2.545293 33.071592 0.000002 -0.000000 -0.000000 -34.888798 4.652465 -4.328486 26.663295 -4.545603 -1.354841 38.819588 5.713122 15.708511 -17.811057 -0.000018 -0.000004 0.000001 0.000001 -0.000000 -18.295048 -15.613932 -17.460672 84.646452 -1.369011 0.790386 9.832216 2.607508 18.486981 -57.982671 0.000003 -0.000026 -0.000001 -0.000000 -0.000000 
